<svg xmlns="http://www.w3.org/2000/svg" width="1260" height="630" viewBox="0 0 1260 630"><path transform="scale(-1,1)" fill="#0d3b99" d="M-1260 0H0V630H-1260z"/><path transform="scale(-1,1)" fill="#fff" d="M-1260 210H0V420H-1260z"/><path d="m 431.01775,-590.33697 -6.34798,19.53708 16.61924,-12.07459 -20.54251,10e-6 16.61924,12.07457 z" fill="#0d3b99" transform="matrix(-3.2407407,0,0,3.2407407,2026.8179,2193.1294)"/><path d="m 431.01775,-590.33697 -6.34798,19.53708 16.61924,-12.07459 -20.54251,10e-6 16.61924,12.07457 z" fill="#0d3b99" transform="matrix(-3.2407407,0,0,3.2407407,2201.8179,2245.6294)"/><path d="m 431.01775,-590.33697 -6.34798,19.53708 16.61924,-12.07459 -20.54251,10e-6 16.61924,12.07457 z" fill="#0d3b99" transform="matrix(-3.2407407,0,0,3.2407407,2201.8179,2140.6294)"/><g transform="translate(-356.26494,491.44973)"><path d="m 431.01775,-590.33697 -6.34798,19.53708 16.61924,-12.07459 -20.54251,10e-6 16.61924,12.07457 z" fill="#0d3b99" transform="matrix(3.2407407,0,0,3.2407407,-585.55296,1754.1797)"/><path d="m 431.01775,-590.33697 -6.34798,19.53708 16.61924,-12.07459 -20.54251,10e-6 16.61924,12.07457 z" fill="#0d3b99" transform="matrix(3.2407407,0,0,3.2407407,-585.55296,1649.1797)"/></g></svg>